<svg xmlns="http://www.w3.org/2000/svg" width="511.777" height="298.585" viewBox="0 0 511.777 298.585">
  <g id="arrow-left" transform="translate(-4.499 -10.124)">
    <path id="Path_77" data-name="Path 77" d="M168.874,16.388a21.323,21.323,0,0,1,0,30.193L56.005,159.412l112.888,112.85A21.35,21.35,0,0,1,138.7,302.455L10.763,174.518a21.323,21.323,0,0,1,0-30.193L138.7,16.388a21.323,21.323,0,0,1,30.193,0Z" transform="translate(0 0)" fill-rule="evenodd"/>
    <path id="Path_78" data-name="Path 78" d="M5.625,38.2A21.323,21.323,0,0,1,26.948,16.875h447.78a21.323,21.323,0,0,1,0,42.646H26.948A21.323,21.323,0,0,1,5.625,38.2Z" transform="translate(20.225 121.214)" fill-rule="evenodd"/>
  </g>
</svg>
