<svg width="12" height="7" viewBox="0 0 12 7" fill="none" xmlns="http://www.w3.org/2000/svg">
<path d="M0.861504 0.503435C0.97423 0.502796 1.08598 0.523971 1.19033 0.565747C1.29469 0.607522 1.38961 0.669076 1.46965 0.746878L5.39259 4.59999C5.47221 4.67867 5.56695 4.74112 5.67133 4.78374C5.7757 4.82636 5.88766 4.8483 6.00073 4.8483C6.1138 4.8483 6.22576 4.82636 6.33014 4.78374C6.43451 4.74112 6.52925 4.67867 6.60887 4.59999L10.5318 0.746878C10.6931 0.588805 10.9119 0.500001 11.14 0.500001C11.3681 0.500001 11.5868 0.588805 11.7481 0.746879C11.9094 0.904952 12 1.11934 12 1.34289C12 1.45358 11.9778 1.56319 11.9345 1.66546C11.8913 1.76772 11.828 1.86064 11.7481 1.93891L7.81659 5.78363C7.32841 6.24329 6.6777 6.5 6.00073 6.5C5.32376 6.5 4.67305 6.24329 4.18487 5.78363L0.253362 1.93891C0.17308 1.86087 0.109358 1.76802 0.0658726 1.66573C0.0223873 1.56343 -5.12514e-07 1.45371 -5.02826e-07 1.34289C-4.93138e-07 1.23207 0.0223874 1.12235 0.0658727 1.02006C0.109358 0.917761 0.17308 0.824916 0.253362 0.746878C0.333397 0.669075 0.428314 0.607522 0.532672 0.565747C0.637031 0.523971 0.748778 0.502796 0.861504 0.503435Z" fill="black"/>
</svg>
