<svg width="24" height="25" viewBox="0 0 24 25" fill="none" xmlns="http://www.w3.org/2000/svg">
<path d="M5.5 10.5C2.416 10.5 0 11.818 0 13.5V21.5C0 23.182 2.416 24.5 5.5 24.5C8.584 24.5 11 23.182 11 21.5V13.5C11 11.818 8.584 10.5 5.5 10.5ZM5.5 23.5C2.848 23.5 1 22.446 1 21.5V19.246C1.987 20.01 3.62 20.5 5.5 20.5C7.38 20.5 9.013 20.01 10 19.246V21.5C10 22.446 8.152 23.5 5.5 23.5ZM5.5 19.5C2.848 19.5 1 18.446 1 17.5V15.246C1.987 16.01 3.62 16.5 5.5 16.5C7.38 16.5 9.013 16.01 10 15.246V17.5C10 18.446 8.152 19.5 5.5 19.5ZM5.5 15.5C2.848 15.5 1 14.446 1 13.5C1 12.554 2.848 11.5 5.5 11.5C8.152 11.5 10 12.554 10 13.5C10 14.446 8.152 15.5 5.5 15.5ZM20 4.5H8V9.5H20V4.5ZM19 8.5H9V5.5H19V8.5ZM20 13.5H19V11.5H20V13.5ZM17 13.5H16V11.5H17V13.5ZM14 13.5H13V11.5H14V13.5ZM13 15.5H14V17.5H13V15.5ZM16 15.5H17V17.5H16V15.5ZM20 17.5H19V15.5H20V17.5ZM13 19.5H20V20.5H13V19.5ZM24 3V24.5H11.613C11.942 24.193 12.224 23.861 12.441 23.5H23V3C23 2.173 22.327 1.5 21.5 1.5H6.5C5.673 1.5 5 2.173 5 3V8.515C4.659 8.528 4.324 8.55 4 8.589V3C4 1.622 5.121 0.5 6.5 0.5H21.5C22.879 0.5 24 1.622 24 3Z" fill="black"/>
</svg>
