<svg width="24" height="24" viewBox="0 0 24 24" fill="none" xmlns="http://www.w3.org/2000/svg">
<g clip-path="url(#clip0_236_770)">
<path d="M23.98 2.02304V6.02304C23.98 6.28826 23.8747 6.54261 23.6871 6.73015C23.4996 6.91769 23.2452 7.02304 22.98 7.02304C22.7148 7.02304 22.4605 6.91769 22.2729 6.73015C22.0854 6.54261 21.98 6.28826 21.98 6.02304V3.46004L16.68 8.73204C16.4909 8.91374 16.238 9.01388 15.9758 9.01089C15.7136 9.0079 15.463 8.90202 15.2781 8.71606C15.0932 8.5301 14.9887 8.27894 14.9872 8.0167C14.9857 7.75446 15.0873 7.50212 15.27 7.31404L20.59 2.02304H17.98C17.7148 2.02304 17.4605 1.91769 17.2729 1.73015C17.0854 1.54261 16.98 1.28826 16.98 1.02304C16.98 0.757827 17.0854 0.503473 17.2729 0.315936C17.4605 0.1284 17.7148 0.0230431 17.98 0.0230431H21.98C22.5105 0.0230431 23.0192 0.233757 23.3942 0.60883C23.7693 0.983902 23.98 1.49261 23.98 2.02304ZM23.075 16.762C23.6545 17.3432 23.98 18.1304 23.98 18.951C23.98 19.7717 23.6545 20.5589 23.075 21.14L22.163 22.19C13.972 30.028 -5.95697 10.105 1.76303 1.89004L2.91203 0.890043C3.49412 0.326814 4.27437 0.015104 5.08431 0.0222137C5.89426 0.0293234 6.66891 0.354682 7.24103 0.928043C7.27103 0.959043 9.12403 3.36704 9.12403 3.36704C9.6737 3.94449 9.97977 4.71151 9.97865 5.50874C9.97753 6.30598 9.66932 7.07214 9.11803 7.64804L7.95903 9.10504C8.59988 10.6622 9.54209 12.0773 10.7315 13.2691C11.921 14.461 13.3342 15.4061 14.89 16.05L16.355 14.885C16.9309 14.3341 17.6968 14.026 18.4938 14.0249C19.2908 14.0238 20.0576 14.3297 20.635 14.879C20.635 14.879 23.044 16.732 23.075 16.762ZM21.7 18.216C21.7 18.216 19.307 16.374 19.276 16.344C19.07 16.1398 18.7916 16.0252 18.5015 16.0252C18.2114 16.0252 17.933 16.1398 17.727 16.344C17.7 16.37 15.683 17.978 15.683 17.978C15.5471 18.0862 15.3853 18.1572 15.2137 18.1838C15.042 18.2105 14.8664 18.1919 14.704 18.13C12.6872 17.3801 10.8554 16.205 9.33288 14.6845C7.81035 13.164 6.63275 11.3338 5.88003 9.31804C5.81418 9.15416 5.79291 8.97576 5.81837 8.80099C5.84384 8.62622 5.91515 8.46132 6.02503 8.32304C6.02503 8.32304 7.63203 6.30604 7.65903 6.27904C7.8633 6.07303 7.97791 5.79466 7.97791 5.50454C7.97791 5.21443 7.8633 4.93606 7.65903 4.73004C7.62903 4.70004 5.78703 2.30604 5.78703 2.30604C5.57805 2.11842 5.30523 2.01783 5.02448 2.0249C4.74372 2.03196 4.4763 2.14615 4.27703 2.34404L3.12803 3.34404C-2.51597 10.126 14.757 26.442 20.7 20.826L21.612 19.776C21.827 19.5787 21.9566 19.3053 21.973 19.0139C21.9894 18.7226 21.8915 18.4363 21.7 18.216Z" fill="black"/>
</g>
<defs>
<clipPath id="clip0_236_770">
<rect width="24" height="24" fill="white"/>
</clipPath>
</defs>
</svg>
