<svg width="24" height="24" viewBox="0 0 24 24" fill="none" xmlns="http://www.w3.org/2000/svg">
<g clip-path="url(#clip0_236_766)">
<path d="M14.9801 7.02303V3.02303C14.9801 2.75781 15.0854 2.50346 15.273 2.31592C15.4605 2.12839 15.7148 2.02303 15.9801 2.02303C16.2453 2.02303 16.4996 2.12839 16.6872 2.31592C16.8747 2.50346 16.9801 2.75781 16.9801 3.02303V5.63403C17.6101 5.00003 21.6811 0.90803 22.2731 0.31603C22.3653 0.22052 22.4757 0.144338 22.5977 0.091929C22.7197 0.03952 22.8509 0.0119338 22.9837 0.0107799C23.1164 0.00962613 23.2481 0.0349278 23.371 0.0852087C23.4939 0.13549 23.6056 0.209743 23.6995 0.303635C23.7933 0.397528 23.8676 0.50918 23.9179 0.632076C23.9682 0.754973 23.9935 0.886652 23.9923 1.01943C23.9912 1.15221 23.9636 1.28343 23.9112 1.40543C23.8588 1.52744 23.7826 1.63778 23.6871 1.73003C23.0951 2.32203 19.0451 6.39503 18.4191 7.02303H20.9801C21.2453 7.02303 21.4996 7.12839 21.6872 7.31592C21.8747 7.50346 21.9801 7.75781 21.9801 8.02303C21.9801 8.28825 21.8747 8.5426 21.6872 8.73014C21.4996 8.91767 21.2453 9.02303 20.9801 9.02303H16.9801C16.4496 9.02303 15.9409 8.81232 15.5658 8.43724C15.1908 8.06217 14.9801 7.55346 14.9801 7.02303ZM23.0751 16.762C23.6546 17.3431 23.98 18.1303 23.98 18.951C23.98 19.7717 23.6546 20.5589 23.0751 21.14L22.1631 22.19C13.9721 30.028 -5.95594 10.106 1.76306 1.89003L2.91306 0.89003C3.4947 0.326576 4.27479 0.0147693 5.08456 0.0220679C5.89433 0.0293665 6.66867 0.355184 7.24006 0.92903C7.27106 0.95903 9.12306 3.36703 9.12306 3.36703C9.67098 3.94557 9.97585 4.71241 9.97473 5.50923C9.97362 6.30605 9.6666 7.07203 9.11706 7.64903L7.95906 9.10503C8.60005 10.6621 9.54232 12.0771 10.7317 13.2689C11.9212 14.4608 13.3343 15.4059 14.8901 16.05L16.3551 14.885C16.9309 14.334 17.6969 14.026 18.4939 14.0249C19.2909 14.0238 20.0577 14.3297 20.6351 14.879C20.6351 14.879 23.0441 16.732 23.0751 16.762ZM21.7001 18.216C21.7001 18.216 19.3071 16.374 19.2761 16.344C19.07 16.1398 18.7917 16.0252 18.5016 16.0252C18.2114 16.0252 17.9331 16.1398 17.7271 16.344C17.7001 16.37 15.6831 17.978 15.6831 17.978C15.5471 18.0862 15.3854 18.1571 15.2137 18.1838C15.042 18.2104 14.8664 18.1919 14.7041 18.13C12.6875 17.3798 10.8558 16.2047 9.33315 14.6845C7.81051 13.1642 6.63253 11.3344 5.87906 9.31903C5.81226 9.15449 5.79048 8.97512 5.81596 8.79937C5.84145 8.62362 5.91327 8.45783 6.02406 8.31903C6.02406 8.31903 7.63206 6.30503 7.65906 6.27903C7.86333 6.07302 7.97794 5.79465 7.97794 5.50453C7.97794 5.21441 7.86333 4.93604 7.65906 4.73003C7.62906 4.70003 5.78706 2.30503 5.78706 2.30503C5.57796 2.11754 5.30506 2.01713 5.02431 2.02438C4.74355 2.03163 4.4762 2.14599 4.27706 2.34403L3.12706 3.34403C-2.51494 10.127 14.7571 26.441 20.7001 20.827L21.6121 19.776C21.8271 19.5787 21.9566 19.3053 21.973 19.0139C21.9895 18.7225 21.8915 18.4363 21.7001 18.216Z" fill="black"/>
</g>
<defs>
<clipPath id="clip0_236_766">
<rect width="24" height="24" fill="white"/>
</clipPath>
</defs>
</svg>
