<svg width="24" height="24" viewBox="0 0 24 24" fill="none" xmlns="http://www.w3.org/2000/svg">
<path d="M23.263 13.885C24.244 14.867 24.244 16.466 23.263 17.447L17.893 22.817C17.106 23.604 16.072 23.997 15.038 23.997C14.004 23.997 12.971 23.604 12.184 22.817C11.421 22.055 11.001 21.041 11.001 19.962C11.001 18.883 11.421 17.87 12.184 17.107L17.196 12.095L18.61 13.509L13.598 18.521C13.213 18.906 13.001 19.418 13.001 19.962C13.001 20.506 13.213 21.018 13.598 21.403C14.394 22.197 15.686 22.196 16.48 21.403L21.85 16.033C22.052 15.831 22.052 15.501 21.85 15.299C21.655 15.104 21.313 15.103 21.116 15.299L15.746 20.669L14.332 19.255L19.702 13.885C20.653 12.935 22.31 12.933 23.263 13.885ZM24 3V11.93C23.394 11.529 22.707 11.291 22 11.212V4.07L15.536 10.535C14.591 11.479 13.335 11.999 12 11.999C10.665 11.999 9.409 11.479 8.464 10.535L2 4.071V17H9.78C9.43 17.618 9.196 18.293 9.083 19H0V3C0 1.346 1.346 0 3 0H21C22.654 0 24 1.346 24 3ZM21.202 2.041C21.135 2.027 21.072 2 21 2H3C2.929 2 2.866 2.026 2.798 2.041L9.878 9.122C10.445 9.688 11.222 9.971 12 9.972C12.777 9.972 13.555 9.689 14.122 9.122L21.202 2.041Z" fill="black"/>
</svg>
