<svg width="30" height="30" viewBox="0 0 30 30" fill="none" xmlns="http://www.w3.org/2000/svg">
<path d="M28.6825 11.5275L26.25 9.1575V3.125C26.25 1.40125 24.8487 0 23.125 0H6.875C5.15125 0 3.75 1.40125 3.75 3.125V9.16125L1.3175 11.5287C0.48 12.345 0 13.485 0 14.6563V30H30V14.6563C30 13.4863 29.52 12.3463 28.6825 11.5275ZM27.96 12.6025L26.25 14.3125V10.9037C26.25 10.9037 27.9088 12.5437 27.96 12.6025ZM6.875 1.25H23.125C24.1588 1.25 25 2.09125 25 3.125V15.5613L18.0938 22.4675C16.4413 24.12 13.56 24.12 11.9075 22.4675L5.00125 15.5613V3.125C5.00125 2.09125 5.84125 1.25 6.875 1.25ZM3.75 10.905V14.3113L2.04 12.6013C2.09125 12.5425 3.75 10.905 3.75 10.905ZM28.75 28.75H1.25V14.6563C1.25 14.3413 1.31375 14.0338 1.40625 13.7363L11.0225 23.3525C12.085 24.4162 13.4963 25 15 25C16.5037 25 17.915 24.415 18.9775 23.3525L28.5938 13.7363C28.6863 14.0338 28.75 14.3413 28.75 14.6563V28.75ZM12.4238 13.2012L8.31375 9.19875L9.185 8.3025L13.3012 12.3112C13.5512 12.5612 13.9487 12.5613 14.1912 12.3175L20.8113 5.805L21.6875 6.69625L15.0713 13.205C14.7088 13.5688 14.2287 13.7513 13.75 13.7513C13.2713 13.7513 12.7887 13.5688 12.4225 13.2025L12.4238 13.2012Z" fill="black"/>
</svg>
