<svg width="25" height="30" viewBox="0 0 25 30" fill="none" xmlns="http://www.w3.org/2000/svg">
<path d="M14.9999 8.75089V0.574976C16.1411 1.00746 17.191 1.67368 18.081 2.56239L22.4358 6.91971C23.3258 7.80843 23.992 8.85838 24.4245 9.99958H16.2498C15.5598 9.99958 14.9999 9.43961 14.9999 8.75089ZM24.9694 12.5007H16.2498C14.1824 12.5007 12.5 10.8183 12.5 8.75089V0.0299988C12.2987 0.0162493 12.0975 0 11.8937 0H6.25023C2.80412 0.00124995 0.000488281 2.80488 0.000488281 6.25099V23.7503C0.000488281 27.1964 2.80412 30 6.25023 30H18.7497C22.1958 30 24.9994 27.1964 24.9994 23.7503V13.107C24.9994 12.9032 24.9832 12.702 24.9694 12.5007ZM17.1335 21.1004C16.8898 21.3441 16.5698 21.4666 16.2498 21.4666C15.9298 21.4666 15.6098 21.3441 15.3661 21.1004L13.7499 19.4842V24.9815C13.7499 25.6714 13.1899 26.2314 12.5 26.2314C11.81 26.2314 11.25 25.6714 11.25 24.9815V19.4842L9.63384 21.1004C9.14511 21.5891 8.35514 21.5891 7.86641 21.1004C7.37768 20.6116 7.37768 19.8217 7.86641 19.3329L9.88383 17.3155C11.3263 15.8731 13.6737 15.8731 15.1174 17.3155L17.1348 19.3329C17.6235 19.8217 17.6235 20.6116 17.1348 21.1004H17.1335Z" fill="black"/>
</svg>
