<svg width="14" height="13" viewBox="0 0 14 13" fill="none" xmlns="http://www.w3.org/2000/svg">
<path d="M7.58331 5.33331C7.58331 5.65531 7.32197 5.91665 6.99997 5.91665C6.67797 5.91665 6.41664 5.65531 6.41664 5.33331C6.41664 5.01131 6.67797 4.74998 6.99997 4.74998C7.32197 4.74998 7.58331 5.01131 7.58331 5.33331ZM7.58331 0.666646C7.58331 0.344646 7.32197 0.0833127 6.99997 0.0833127C6.67797 0.0833127 6.41664 0.344646 6.41664 0.666646C6.41664 0.988646 6.67797 1.24998 6.99997 1.24998C7.32197 1.24998 7.58331 0.988646 7.58331 0.666646ZM6.99997 7.08331C6.67797 7.08331 6.41664 7.34465 6.41664 7.66665C6.41664 7.98865 6.67797 8.24998 6.99997 8.24998C7.32197 8.24998 7.58331 7.98865 7.58331 7.66665C7.58331 7.34465 7.32197 7.08331 6.99997 7.08331ZM7.58331 2.99998C7.58331 2.67798 7.32197 2.41665 6.99997 2.41665C6.67797 2.41665 6.41664 2.67798 6.41664 2.99998C6.41664 3.32198 6.67797 3.58331 6.99997 3.58331C7.32197 3.58331 7.58331 3.32198 7.58331 2.99998ZM7.58331 12.3333C7.58331 12.0113 7.32197 11.75 6.99997 11.75C6.67797 11.75 6.41664 12.0113 6.41664 12.3333C6.41664 12.6553 6.67797 12.9166 6.99997 12.9166C7.32197 12.9166 7.58331 12.6553 7.58331 12.3333ZM7.58331 9.99998C7.58331 9.67798 7.32197 9.41665 6.99997 9.41665C6.67797 9.41665 6.41664 9.67798 6.41664 9.99998C6.41664 10.322 6.67797 10.5833 6.99997 10.5833C7.32197 10.5833 7.58331 10.322 7.58331 9.99998ZM10.9124 4.57906L12.25 5.91665L9.33331 5.91665C9.01131 5.91665 8.74997 6.1774 8.74997 6.49998C8.74997 6.82256 9.01131 7.08331 9.33331 7.08331L12.25 7.08331L10.9124 8.4209C10.7986 8.53465 10.7415 8.68398 10.7415 8.83331C10.7415 8.98265 10.7986 9.13198 10.9124 9.24573C11.1405 9.47381 11.5091 9.47381 11.7372 9.24573L13.6581 7.32481C14.1131 6.8704 14.1131 6.12956 13.6581 5.67515L11.7372 3.75423C11.5091 3.52615 11.1405 3.52615 10.9124 3.75423C10.6843 3.98231 10.6843 4.35098 10.9124 4.57906ZM3.08755 8.4209L1.74997 7.08331L4.66664 7.08331C4.98864 7.08331 5.24997 6.82256 5.24997 6.49998C5.24997 6.1774 4.98864 5.91665 4.66664 5.91665L1.74997 5.91665L3.08755 4.57906C3.31564 4.35098 3.31564 3.98231 3.08755 3.75423C2.85947 3.52615 2.49081 3.52615 2.26272 3.75423L0.341805 5.67515C0.114305 5.90265 0.000554771 6.20131 0.000554758 6.49998C0.000554745 6.79865 0.114305 7.09731 0.341805 7.32481L2.26272 9.24573C2.4908 9.47381 2.85947 9.47381 3.08755 9.24573C3.31564 9.01765 3.31564 8.64898 3.08755 8.4209Z" fill="black"/>
</svg>
