<svg width="56" height="55" viewBox="0 0 56 55" fill="none" xmlns="http://www.w3.org/2000/svg">
<path d="M45.4063 0.306885H10.5932C5.19695 0.306885 0.806641 4.6972 0.806641 10.0925V44.9066C0.806641 50.3028 5.19695 54.6922 10.5932 54.6922H45.4063C50.8026 54.6922 55.1929 50.3019 55.1929 44.9066V10.0934C55.1929 4.6972 50.8026 0.306885 45.4063 0.306885ZM10.5932 2.18188H45.4063C49.7685 2.18188 53.3179 5.73032 53.3179 10.0925V39.4494L44.7895 30.8984C42.3304 28.4713 38.3301 28.4703 35.8673 30.9031L30.4973 36.2731L17.076 22.8509C14.6376 20.4116 10.6466 20.4116 8.17633 22.8509L2.68164 28.3456V10.0925C2.68164 5.73032 6.23101 2.18188 10.5932 2.18188ZM45.4063 52.8181H10.5932C6.23101 52.8181 2.68164 49.2697 2.68164 44.9075V30.9969L9.4982 24.1803C11.2345 22.4666 14.0395 22.4638 15.7504 24.1756L37.1966 45.6228C37.3795 45.8056 37.6195 45.8975 37.8595 45.8975C38.0995 45.8975 38.3395 45.8056 38.5223 45.6228C38.8888 45.2563 38.8888 44.6638 38.5223 44.2972L31.8238 37.5988L37.1891 32.2334C38.9207 30.5234 41.7398 30.5234 43.4676 32.2278L53.3188 42.1044V44.9066C53.3179 49.2697 49.7685 52.8181 45.4063 52.8181Z" fill="black"/>
</svg>
