<svg width="94" height="94" viewBox="0 0 94 94" fill="none" xmlns="http://www.w3.org/2000/svg">
<path fill-rule="evenodd" clip-rule="evenodd" d="M69.7191 3.1964C73.4433 -0.941536 79.9317 -0.94152 83.6559 3.19642L93.0728 13.6597C94.2273 14.9425 94.1234 16.9184 92.8405 18.073C91.5577 19.2275 89.5817 19.1236 88.4272 17.8406L79.8125 8.26878V34.5002C79.8125 36.2261 78.4134 37.6252 76.6875 37.6252C74.9616 37.6252 73.5625 36.2261 73.5625 34.5002V8.26878L64.9478 17.8406C63.7933 19.1236 61.8173 19.2275 60.5345 18.073C59.2516 16.9184 59.1477 14.9425 60.3022 13.6597L69.7191 3.1964ZM25.125 6.37517C14.7697 6.37517 6.375 14.7698 6.375 25.1252V68.8751C6.375 69.4764 6.4033 70.0709 6.45863 70.6576L13.5453 59.3191C21.4011 46.7497 39.2198 45.4675 48.7942 56.7828L56.8698 66.3266C64.0125 55.5383 80.4638 55.3987 87.625 66.5962V47.0002C87.625 45.2742 89.0241 43.8752 90.75 43.8752C92.4759 43.8752 93.875 45.2742 93.875 47.0002V68.8751C93.875 82.6823 82.6822 93.8751 68.875 93.8751H25.125C11.3179 93.8751 0.125 82.6823 0.125 68.8751V25.1252C0.125 11.3181 11.3179 0.125167 25.125 0.125167H52.4688C54.1947 0.125167 55.5938 1.52428 55.5938 3.25017C55.5938 4.97606 54.1947 6.37517 52.4688 6.37517H25.125Z" fill="black"/>
</svg>
