<svg width="14" height="15" viewBox="0 0 14 15" fill="none" xmlns="http://www.w3.org/2000/svg">
<path d="M8.16669 8.08331C7.84469 8.08331 7.58335 7.82197 7.58335 7.49997C7.58335 7.17797 7.84469 6.91664 8.16669 6.91664C8.48869 6.91664 8.75002 7.17797 8.75002 7.49997C8.75002 7.82197 8.48869 8.08331 8.16669 8.08331ZM12.8334 8.08331C13.1554 8.08331 13.4167 7.82197 13.4167 7.49997C13.4167 7.17797 13.1554 6.91664 12.8334 6.91664C12.5114 6.91664 12.25 7.17797 12.25 7.49997C12.25 7.82197 12.5114 8.08331 12.8334 8.08331ZM6.41669 7.49997C6.41669 7.17797 6.15535 6.91664 5.83335 6.91664C5.51135 6.91664 5.25002 7.17797 5.25002 7.49997C5.25002 7.82197 5.51135 8.08331 5.83335 8.08331C6.15535 8.08331 6.41669 7.82197 6.41669 7.49997ZM10.5 8.08331C10.822 8.08331 11.0834 7.82197 11.0834 7.49997C11.0834 7.17797 10.822 6.91664 10.5 6.91664C10.178 6.91664 9.91669 7.17797 9.91669 7.49997C9.91669 7.82197 10.178 8.08331 10.5 8.08331ZM1.16669 8.08331C1.48869 8.08331 1.75002 7.82197 1.75002 7.49997C1.75002 7.17797 1.48869 6.91664 1.16669 6.91664C0.844687 6.91664 0.583354 7.17797 0.583354 7.49997C0.583354 7.82197 0.844687 8.08331 1.16669 8.08331ZM3.50002 8.08331C3.82202 8.08331 4.08335 7.82197 4.08335 7.49997C4.08335 7.17797 3.82202 6.91664 3.50002 6.91664C3.17802 6.91664 2.91669 7.17797 2.91669 7.49997C2.91669 7.82197 3.17802 8.08331 3.50002 8.08331ZM8.92094 11.4124L7.58335 12.75L7.58335 9.83331C7.58335 9.51131 7.3226 9.24997 7.00002 9.24997C6.67744 9.24997 6.41669 9.51131 6.41669 9.83331L6.41669 12.75L5.0791 11.4124C4.96535 11.2986 4.81602 11.2415 4.66669 11.2415C4.51735 11.2415 4.36802 11.2986 4.25427 11.4124C4.02619 11.6405 4.02619 12.0091 4.25427 12.2372L6.17519 14.1581C6.6296 14.6131 7.37044 14.6131 7.82485 14.1581L9.74577 12.2372C9.97385 12.0091 9.97385 11.6405 9.74577 11.4124C9.51769 11.1843 9.14902 11.1843 8.92094 11.4124ZM5.0791 3.58755L6.41669 2.24997L6.41669 5.16664C6.41669 5.48864 6.67744 5.74997 7.00002 5.74997C7.3226 5.74997 7.58335 5.48864 7.58335 5.16664L7.58335 2.24997L8.92094 3.58755C9.14902 3.81564 9.51769 3.81564 9.74577 3.58755C9.97385 3.35947 9.97385 2.9908 9.74577 2.76272L7.82485 0.841805C7.59735 0.614305 7.29869 0.500555 7.00002 0.500554C6.70135 0.500554 6.40269 0.614305 6.17519 0.841805L4.25427 2.76272C4.02619 2.9908 4.02619 3.35947 4.25427 3.58755C4.48235 3.81564 4.85102 3.81564 5.0791 3.58755Z" fill="black"/>
</svg>
